# xmcd CD database file
#
# Track frame offsets:
#	150
#	15300
#	27375
#	42075
#	62400
#	76425
#	94500
#	110625
#	129375
#	145350
#	157425
#	182700
#	194250
#	208200
#	222675
#
# Disc length: 3216 seconds
#
# Revision: 0
# Processed by: cddbd v1.5.2PL0 Copyright (c) Steve Scherf et al.
# Submitted via: CDex 1.51
#
DISCID=db0c8e0f
DTITLE=Johnson Stompers - Big Road
DYEAR=2016
DGENRE=Blues
TTITLE0=32-20 Blues
TTITLE1=Big Road Blues
TTITLE2=Kasey Jones
TTITLE3=Tell Old Bill
TTITLE4=Stop Breakin' Down Blues
TTITLE5=Dekalb Blues
TTITLE6=Kokomo Blues
TTITLE7=Jitterbug Swing
TTITLE8=Come Back Baby
TTITLE9=Travelin' Riverside Blues
TTITLE10=Poor Boy
TTITLE11=You Gotta Move
TTITLE12=Preachin' Blues
TTITLE13=Come on in my Kitchen
TTITLE14=Possession Blues
EXTD=YEAR: 2016
EXTT0=
EXTT1=
EXTT2=
EXTT3=
EXTT4=
EXTT5=
EXTT6=
EXTT7=
EXTT8=
EXTT9=
EXTT10=
EXTT11=
EXTT12=
EXTT13=
EXTT14=
PLAYORDER=
